<svg
        width="46"
        height="18"
        viewBox="0 0 46 18"
        fill="none"
        xmlns="http://www.w3.org/2000/svg"
>
    <path
            d="M15 4L13.7077 3.03077C12.1448 1.85858 9.96378 1.98688 8.54907 3.33422L3.58011 8.06656C1.91048 9.65669 1.92734 12.3254 3.61693 13.8943L4.71606 14.9149C6.27624 16.3637 8.69785 16.3364 10.225 14.8529L22.3545 3.0699C23.849 1.61811 26.2076 1.55669 27.7757 2.92871L29 4M17 13.5L18.6399 14.9576C20.2395 16.3796 22.6751 16.2903 24.1664 14.7552L35.775 2.8052C37.2898 1.24581 39.7728 1.18185 41.3659 2.66117L42.5282 3.74046C44.1628 5.25833 44.24 7.81996 42.6998 9.43354L37.8269 14.5385C36.2764 16.1628 33.6929 16.1929 32.105 14.605L30.5 13"
            stroke="currentColor"
            stroke-width="3"
    />
</svg>